<?xml version="1.0" encoding="UTF-8"?>
<svg width="200" height="200" viewBox="0 0 200 200" xmlns="http://www.w3.org/2000/svg">
  <defs>
    <linearGradient id="gradient1" x1="0%" y1="0%" x2="100%" y2="100%">
      <stop offset="0%" style="stop-color:#ff6b6b;stop-opacity:1" />
      <stop offset="50%" style="stop-color:#4ecdc4;stop-opacity:1" />
      <stop offset="100%" style="stop-color:#ffe66d;stop-opacity:1" />
    </linearGradient>
    <linearGradient id="gradient2" x1="100%" y1="0%" x2="0%" y2="100%">
      <stop offset="0%" style="stop-color:#ffe66d;stop-opacity:1" />
      <stop offset="50%" style="stop-color:#ff6b6b;stop-opacity:1" />
      <stop offset="100%" style="stop-color:#4ecdc4;stop-opacity:1" />
    </linearGradient>
    <filter id="glow">
      <feGaussianBlur stdDeviation="3" result="coloredBlur"/>
      <feMerge>
        <feMergeNode in="coloredBlur"/>
        <feMergeNode in="SourceGraphic"/>
      </feMerge>
    </filter>
  </defs>
  
  <!-- Background circle -->
  <circle cx="100" cy="100" r="95" fill="#1a1a1a" stroke="url(#gradient1)" stroke-width="2"/>
  
  <!-- Creating a stylized design with 9-7-1-1-5-1-0-4 -->
  <!-- Top row: 9 7 -->
  <g transform="translate(100, 100)">
    <!-- 9 as a spiral -->
    <path d="M -50,-30 Q -50,-50 -30,-50 Q -10,-50 -10,-30 Q -10,-10 -30,-10 Q -40,-10 -40,-20" 
          fill="none" 
          stroke="url(#gradient1)" 
          stroke-width="6" 
          stroke-linecap="round"
          filter="url(#glow)"/>
    <circle cx="-40" cy="-40" r="4" fill="url(#gradient1)"/>
    
    <!-- 7 as angular -->
    <path d="M -5,-50 L 20,-50 L -5,-10" 
          fill="none" 
          stroke="url(#gradient2)" 
          stroke-width="6" 
          stroke-linecap="round"
          filter="url(#glow)"/>
    
    <!-- Middle row: 11 as parallel lines -->
    <line x1="-50" y1="-5" x2="-50" y2="25" stroke="#4ecdc4" stroke-width="6" stroke-linecap="round" filter="url(#glow)"/>
    <line x1="-35" y1="-5" x2="-35" y2="25" stroke="#4ecdc4" stroke-width="6" stroke-linecap="round" filter="url(#glow)"/>
    
    <!-- 5 as stylized -->
    <path d="M 5,0 L -10,0 L -10,10 Q -10,25 5,25 Q 20,25 20,10 Q 20,0 10,0" 
          fill="none" 
          stroke="#ffe66d" 
          stroke-width="6" 
          stroke-linecap="round"
          filter="url(#glow)"/>
    <line x1="-10" y1="0" x2="-10" y2="-10" stroke="#ffe66d" stroke-width="6" stroke-linecap="round" filter="url(#glow)"/>
    
    <!-- Bottom row: 10 4 -->
    <!-- 1 -->
    <line x1="-50" y1="35" x2="-50" y2="65" stroke="url(#gradient1)" stroke-width="6" stroke-linecap="round" filter="url(#glow)"/>
    
    <!-- 0 as circle -->
    <circle cx="-30" cy="50" r="15" fill="none" stroke="url(#gradient2)" stroke-width="6" filter="url(#glow)"/>
    
    <!-- 4 -->
    <path d="M 20,35 L 5,50 L 25,50" 
          fill="none" 
          stroke="#ff6b6b" 
          stroke-width="6" 
          stroke-linecap="round"/>
    <line x1="20" y1="35" x2="20" y2="65" stroke="#ff6b6b" stroke-width="6" stroke-linecap="round" filter="url(#glow)"/>
  </g>
  
  <!-- Decorative elements -->
  <circle cx="30" cy="30" r="3" fill="#4ecdc4" opacity="0.6">
    <animate attributeName="opacity" values="0.6;1;0.6" dur="3s" repeatCount="indefinite"/>
  </circle>
  <circle cx="170" cy="170" r="3" fill="#ffe66d" opacity="0.6">
    <animate attributeName="opacity" values="0.6;1;0.6" dur="3s" begin="1s" repeatCount="indefinite"/>
  </circle>
  <circle cx="170" cy="30" r="3" fill="#ff6b6b" opacity="0.6">
    <animate attributeName="opacity" values="0.6;1;0.6" dur="3s" begin="2s" repeatCount="indefinite"/>
  </circle>
</svg>